<svg width="152" height="40" viewBox="0 0 152 40" fill="none" xmlns="http://www.w3.org/2000/svg">
<g clip-path="url(#clip0_78_12387)">
<path d="M48.2407 16.2642C45.2212 15.0505 42.9551 14.1348 42.9551 11.8732C42.9551 9.9952 44.2133 8.94839 46.5731 8.94839C49.0586 8.94839 51.8922 9.61809 54.9419 10.9575V5.06131C51.3238 3.84761 48.933 3.38489 46.3228 3.38489C40.7534 3.38489 37.7339 6.1493 37.7339 11.5416C37.7339 17.4378 41.6357 19.15 46.2926 20.7408C49.7517 22.1604 50.9145 23.334 50.9145 25.2975C50.9145 27.3868 49.7818 28.2223 46.8871 28.2223C43.8072 28.2223 40.4085 27.3012 37.9834 25.8405V31.9024C40.9426 33.2418 43.583 33.7858 46.9507 33.7858C52.7704 33.7858 56.1381 30.9011 56.1381 25.5034C56.1381 21.1981 53.9976 18.4391 48.2391 16.2642H48.2407Z" fill="white"/>
<path d="M81.683 10.8719C78.5689 10.8719 76.0835 13.4196 75.1702 18.062H75.1098C74.7005 13.4196 72.6244 10.8719 69.4157 10.8719C66.207 10.8719 63.8162 13.4651 62.933 18.062H62.8727L63.4068 11.456H58.5615V33.1964H63.4068V22.0336C63.4068 18.5648 65.1347 16.3032 67.245 16.3032C69.4769 16.3032 70.8288 18.3123 70.8288 21.9068V33.1953H75.6741V22.0325C75.6741 18.5637 77.4053 16.3021 79.5123 16.3021C81.6194 16.3021 83.1002 18.3112 83.1002 21.9057V33.1942H87.9455V20.692C87.9455 14.4642 85.5547 10.8687 81.683 10.8687V10.8719Z" fill="white"/>
<path d="M99.05 10.8719C96.7537 10.8719 94.2047 11.4961 91.4045 12.7098V18.2278C93.7953 16.7681 96.0263 16.0573 98.0421 16.0573C100.841 16.0573 102.32 17.5625 102.353 20.4027H96.845C92.6317 20.4027 90.2417 22.8301 90.2417 27.1745C90.2417 31.5189 92.3789 33.7848 95.9016 33.7848C99.4242 33.7848 101.816 31.3173 102.824 26.6359H102.888L102.354 33.1964H107.196V20.4883C107.196 14.1348 104.366 10.8719 99.0508 10.8719H99.05ZM102.353 23.7913C102.353 26.5503 100.183 28.7653 97.6327 28.7653C95.9016 28.7653 94.9581 27.8041 94.9581 25.9662C94.9581 24.1283 95.9358 23.036 97.7918 23.036H102.353V23.7913Z" fill="white"/>
<path d="M119.402 28.0566C117.106 28.0566 116.224 26.8028 116.224 23.5399V16.9339H122.99V11.456H116.224V6.85913H114.118L114.087 7.19181C113.459 10.1166 111.602 12.1257 109.082 12.544L108.863 12.5841V16.9339H111.383V24.668C111.383 30.9814 113.519 33.7859 118.305 33.7859C119.972 33.7859 121.605 33.4489 123.276 32.7792V27.2211C121.828 27.8052 120.507 28.0566 119.404 28.0566H119.402Z" fill="white"/>
<path d="M126.108 11.4559V33.1963H130.954V11.4559H126.108ZM128.529 2.96765C126.801 2.96765 125.574 4.26696 125.574 6.14927C125.574 8.03159 126.801 9.36665 128.529 9.36665C130.257 9.36665 131.519 8.07277 131.519 6.14927C131.519 4.22578 130.26 2.96765 128.529 2.96765Z" fill="white"/>
<path d="M150.303 27.0943C149.61 24.3754 148.413 22.7044 146.181 22.3262L144.385 21.9935V21.9079C148.572 20.8654 150.429 16.8472 150.618 11.4549H145.613C145.393 16.3032 143.976 19.9443 141.116 19.9443H139.134V2.84631L134.289 3.92889V33.1963H139.134V24.6669H141.21C143.252 24.6669 144.734 25.6281 145.362 28.2614L146.525 33.1953H152L150.303 27.0932V27.0943Z" fill="white"/>
<path d="M3.5293 25.1187V15.7451C3.5293 11.6543 5.53117 8.0392 8.46998 6.82333L24.1034 0.356058C27.8674 -1.20116 31.6869 2.54505 31.6771 7.78345C31.6706 11.1731 30.0095 14.164 27.5738 15.1718L3.5293 25.1187Z" fill="#FFB522"/>
<path d="M0 32.2362C0 28.8401 1.66266 25.8383 4.10242 24.8284L28.1682 14.8717L28.1502 24.2779C28.1421 28.36 26.1418 31.9621 23.2087 33.1747L7.57289 39.6431C3.81539 41.1992 0 37.4671 0 32.2362Z" fill="#FF621D"/>
</g>
<defs>
<clipPath id="clip0_78_12387">
<rect width="152" height="40" fill="white"/>
</clipPath>
</defs>
</svg>
